<svg xmlns="http://www.w3.org/2000/svg" width="48" height="48" viewBox="0 0 12.7 12.7" version="1.1">
  <g>
    <path style="fill:#ff0000;fill-opacity:1;stroke-width:1"
       d="m 7.099776,8.3002155 c 0,0.3000002 -0.10024,0.2999881 -0.30024,0.199988 L 5.699862,7.9002402 c -9.53e-4,0.8986694 0,1.8003771 0,2.7000938 0,0.3 0.114106,0.299987 0.299723,0.199987 L 11.9,7.6 c 0.1,0 0.1,-0.1997234 0,-0.2997232 L 7.099776,5.0001587 Z"/>
    <path style="fill:#ffffff;fill-opacity:1;stroke-width:1"
       d="m 6.904956,1.8851035 c -0.02665,0.0018 -0.0567,0.00923 -0.09043,0.023254 -1.963699,1.07149 -3.932791,2.1346294 -5.899898,3.2003213 -0.1,0 -0.1,0.1997234 0,0.2997232 l 4.800224,2.5001058 c 0,-0.1964115 0,-2.2287285 0,-3.3000568 0,-0.2999999 0.09972,-0.2999875 0.299723,-0.199988 L 7.09978,5.0001584 V 2.1124793 C 7.07844,1.9869371 7.02726,1.8768001 6.90496,1.8851032 Z"/>
  </g>
</svg>
