<?xml version="1.0" encoding="UTF-8" standalone="no"?>
<svg
   xmlns:dc="http://purl.org/dc/elements/1.1/"
   xmlns:cc="http://creativecommons.org/ns#"
   xmlns:rdf="http://www.w3.org/1999/02/22-rdf-syntax-ns#"
   xmlns:svg="http://www.w3.org/2000/svg"
   xmlns="http://www.w3.org/2000/svg"
   xmlns:sodipodi="http://sodipodi.sourceforge.net/DTD/sodipodi-0.dtd"
   xmlns:inkscape="http://www.inkscape.org/namespaces/inkscape"
   viewBox="0 0 127 127"
   height="127px"
   width="127px"
   version="1.1"
   id="svg6"
   sodipodi:docname="icon.svg"
   inkscape:version="0.92.3 (2405546, 2018-03-11)">
  <metadata
     id="metadata12">
    <rdf:RDF>
      <cc:Work
         rdf:about="">
        <dc:format>image/svg+xml</dc:format>
        <dc:type
           rdf:resource="http://purl.org/dc/dcmitype/StillImage" />
      </cc:Work>
    </rdf:RDF>
  </metadata>
  <defs
     id="defs10" />
  <sodipodi:namedview
     pagecolor="#ffffff"
     bordercolor="#666666"
     borderopacity="1"
     objecttolerance="10"
     gridtolerance="10"
     guidetolerance="10"
     inkscape:pageopacity="0"
     inkscape:pageshadow="2"
     inkscape:window-width="1055"
     inkscape:window-height="707"
     id="namedview8"
     showgrid="false"
     inkscape:zoom="1.8582677"
     inkscape:cx="63.5"
     inkscape:cy="63.5"
     inkscape:window-x="644"
     inkscape:window-y="204"
     inkscape:window-maximized="0"
     inkscape:current-layer="svg6" />
  <path
     style="fill:#ffffff;fill-opacity:1;stroke:none;stroke-width:5.51912546;stroke-linejoin:miter;stroke-miterlimit:4;stroke-dasharray:none;stroke-opacity:1"
     id="path840"
     sodipodi:type="arc"
     sodipodi:cx="63.5"
     sodipodi:cy="63.5"
     sodipodi:rx="54.351696"
     sodipodi:ry="54.351696"
     sodipodi:start="0.52359878"
     sodipodi:end="0.52287621"
     d="M 110.56995,90.675848 A 54.351696,54.351696 0 0 1 36.332655,110.57486 54.351696,54.351696 0 0 1 16.420235,36.341159 54.351696,54.351696 0 0 1 90.650336,16.41533 54.351696,54.351696 0 0 1 110.58957,90.64183 L 63.5,63.5 Z" />
  <g
     id="g838"
     transform="matrix(0.91887403,0,0,0.91887403,5.1514991,4.8758369)">
    <path
       inkscape:connector-curvature="0"
       id="path2"
       d="m 63.75,13.8 c -25.9,0 -47.2,19.7 -49.7,45 -0.2,0.9 -0.3,1.9 -0.3,2.8 v 0.5 1.7 c 0,27.6 22.4,50 50,50 2.4,0 4.4,-2 4.4,-4.4 0,-2.4 -2,-4.4 -4.4,-4.4 -11.4,0 -21.6,-4.6 -29.1,-12.1 -7.5,-7.5 -12.1,-17.7 -12.1,-29.1 0,-1.3 0.1,-2.6 0.2,-3.9 0.3,-1.5 1.1,-2.9 2.2,-4 1.5,-1.5 3.5,-2.4 5.7,-2.4 2.3,0 4.2,0.9 5.7,2.4 1.5,1.5 2.4,3.5 2.4,5.7 v 10.2 c 0,9.4 7.6,16.9 16.9,16.9 2.4,0 4.4,-2 4.4,-4.4 0,-2.4 -2,-4.4 -4.4,-4.4 -2.3,0 -4.3,-0.9 -5.7,-2.4 -1.4,-1.5 -2.3,-3.5 -2.3,-5.7 V 61.6 c 0,-9.4 -7.6,-16.9 -16.9,-16.9 -1.2,0 -2.4,0.1 -3.6,0.4 2,-3.9 4.5,-7.4 7.6,-10.4 7.5,-7.5 17.7,-12.1 29.1,-12.1 9.9,0 18.9,3.5 26,9.3 3.9,3.2 7.2,7.1 9.7,11.6 h -0.3 c -7.7,0 -14,6.3 -14,14 0,2.4 2,4.4 4.4,4.4 2.4,0 4.4,-2 4.4,-4.4 0,-1.4 0.6,-2.7 1.5,-3.7 0.9,-0.9 2.2,-1.5 3.7,-1.5 1.4,0 2.7,0.6 3.7,1.5 0.9,0.9 1.5,2.2 1.5,3.7 v 7.8 c 0,1.4 -0.6,2.7 -1.5,3.6 -0.9,0.9 -2.2,1.5 -3.7,1.5 -2.4,0 -4.4,2 -4.4,4.4 0,2.4 2,4.4 4.4,4.4 7.7,0 14,-6.3 14,-14 v -7.8 c 0,-1.4 -0.2,-2.8 -0.6,-4.1 v 0 C 110.25,42 104.05,32.1 95.45,25.1 86.85,18 75.75,13.8 63.75,13.8 Z m -33.3,44 c -2.6,0 -4.6,2.1 -4.6,4.6 0,2.5 2.1,4.6 4.6,4.6 2.6,0 4.6,-2.1 4.6,-4.6 0,-2.6 -2.1,-4.6 -4.6,-4.6 z m 28.2,0 c -2.5,0 -4.6,2.1 -4.6,4.6 0,2.5 2.1,4.6 4.6,4.6 2.6,0 4.6,-2.1 4.6,-4.6 0,-2.6 -2.1,-4.6 -4.6,-4.6 z"
       style="fill:#e10000" />
    <path
       id="path4"
       d="m 87.85,85.800001 c -1.1,-0.1 -2.3,0.3 -3.2,1.1 -2.5,2.3 -5.3,4.2 -8.3,5.8 -2.2,1.099999 -3,3.799999 -1.8,6 1.1,2.199999 3.8,2.999999 6,1.799999 3.7,-1.9 7.1,-4.299999 10.1,-7.099999 1.8,-1.6 1.9,-4.400001 0.3,-6.2 -0.8,-0.900001 -1.9,-1.400001 -3.1,-1.4 z"
       style="fill:#000000"
       inkscape:connector-curvature="0" />
  </g>
</svg>
