<svg xmlns="http://www.w3.org/2000/svg" viewBox="0 0 127 127" height="127px" width="127px" version="1.1">
  <path style="fill:#e10000" d="m 64,13.8 c -25.9,0 -47.2,19.7 -49.7,45 -0.2,0.9 -0.3,1.9 -0.3,2.8 v 0.5 1.7 c 0,27.6 22.4,50 50,50 2.4,0 4.4,-2 4.4,-4.4 C 68.4,107 66.4,105 64,105 52.6,105 42.4,100.4 34.9,92.9 27.4,85.4 22.8,75.2 22.8,63.8 c 0,-1.3 0.1,-2.6 0.2,-3.9 0.3,-1.5 1.1,-2.9 2.2,-4 1.5,-1.5 3.5,-2.4 5.7,-2.4 2.3,0 4.2,0.9 5.7,2.4 1.5,1.5 2.4,3.5 2.4,5.7 v 10.2 c 0,9.4 7.6,16.9 16.9,16.9 2.4,0 4.4,-2 4.4,-4.4 0,-2.4 -2,-4.4 -4.4,-4.4 -2.3,0 -4.3,-0.9 -5.7,-2.4 C 48.8,76 47.9,74 47.9,71.8 V 61.6 c 0,-9.4 -7.6,-16.9 -16.9,-16.9 -1.2,0 -2.4,0.1 -3.6,0.4 2,-3.9 4.5,-7.4 7.6,-10.4 7.5,-7.5 17.7,-12.1 29.1,-12.1 9.9,0 18.9,3.5 26,9.3 3.9,3.2 7.2,7.1 9.7,11.6 h -0.3 c -7.7,0 -14,6.3 -14,14 0,2.4 2,4.4 4.4,4.4 2.4,0 4.4,-2 4.4,-4.4 0,-1.4 0.6,-2.7 1.5,-3.7 0.9,-0.9 2.2,-1.5 3.7,-1.5 1.4,0 2.7,0.6 3.7,1.5 0.9,0.9 1.5,2.2 1.5,3.7 v 7.8 c 0,1.4 -0.6,2.7 -1.5,3.6 -0.9,0.9 -2.2,1.5 -3.7,1.5 -2.4,0 -4.4,2 -4.4,4.4 0,2.4 2,4.4 4.4,4.4 7.7,0 14,-6.3 14,-14 v -7.8 c 0,-1.4 -0.2,-2.8 -0.6,-4.1 v 0 C 110.5,42 104.3,32.1 95.7,25.1 87.1,18 76,13.8 64,13.8 Z m -33.3,44 c -2.6,0 -4.6,2.1 -4.6,4.6 0,2.5 2.1,4.6 4.6,4.6 2.6,0 4.6,-2.1 4.6,-4.6 0,-2.6 -2.1,-4.6 -4.6,-4.6 z m 28.2,0 c -2.5,0 -4.6,2.1 -4.6,4.6 0,2.5 2.1,4.6 4.6,4.6 2.6,0 4.6,-2.1 4.6,-4.6 0,-2.6 -2.1,-4.6 -4.6,-4.6 z" />
  <path style="fill:#000000" d="m 87.85,85.800001 c -1.1,-0.1 -2.3,0.3 -3.2,1.1 -2.5,2.3 -5.3,4.2 -8.3,5.8 -2.2,1.099999 -3,3.799999 -1.8,6 1.1,2.199999 3.8,2.999999 6,1.799999 3.7,-1.9 7.1,-4.299999 10.1,-7.099999 1.8,-1.6 1.9,-4.400001 0.3,-6.2 -0.8,-0.900001 -1.9,-1.400001 -3.1,-1.4 z" />
</svg>
