<svg version="1.1" xmlns="http://www.w3.org/2000/svg" width="128px" height="128px" viewBox="0 0 128 128">
  <rect x="0" y="0" width="128" height="128" fill="#e10000"/>
  <path fill="#ffffff" d="m64 13.8c-25.9 0-47.2 19.7-49.7 45-.2 .9-.3 1.9-.3 2.8 0 .2 0 .3 0 .5 0 .6 0 1.1 0 1.7 0 27.6 22.4 50 50 50 2.4 0 4.4-2 4.4-4.4 0-2.4-2-4.4-4.4-4.4-11.4 0-21.6-4.6-29.1-12.1-7.5-7.5-12.1-17.7-12.1-29.1 0-1.3 .1-2.6 .2-3.9 .3-1.5 1.1-2.9 2.2-4 1.5-1.5 3.5-2.4 5.7-2.4 2.3 0 4.2 .9 5.7 2.4 1.5 1.5 2.4 3.5 2.4 5.7v10.2c0 9.4 7.6 16.9 16.9 16.9 2.4 0 4.4-2 4.4-4.4 0-2.4-2-4.4-4.4-4.4-2.3 0-4.3-.9-5.7-2.4C48.8 76 47.9 74 47.9 71.8V61.6c0-9.4-7.6-16.9-16.9-16.9-1.2 0-2.4 .1-3.6 .4 2-3.9 4.5-7.4 7.6-10.4 7.5-7.5 17.7-12.1 29.1-12.1 9.9 0 18.9 3.5 26 9.3 3.9 3.2 7.2 7.1 9.7 11.6-.1 0-.2 0-.3 0-7.7 0-14 6.3-14 14 0 2.4 2 4.4 4.4 4.4 2.4 0 4.4-2 4.4-4.4 0-1.4 .6-2.7 1.5-3.7 .9-.9 2.2-1.5 3.7-1.5 1.4 0 2.7 .6 3.7 1.5 .9 .9 1.5 2.2 1.5 3.7v7.8c0 1.4-.6 2.7-1.5 3.6-.9 .9-2.2 1.5-3.7 1.5-2.4 0-4.4 2-4.4 4.4 0 2.4 2 4.4 4.4 4.4 7.7 0 14-6.3 14-14v-7.8c0-1.4-.2-2.8-.6-4.1 0 0 0 0 0 0C110.5 42 104.3 32.1 95.7 25.1 87.1 18 76 13.8 64 13.8ZM30.7 57.8c-2.6 0-4.6 2.1-4.6 4.6 0 2.5 2.1 4.6 4.6 4.6 2.6 0 4.6-2.1 4.6-4.6 0-2.6-2.1-4.6-4.6-4.6zm28.2 0c-2.5 0-4.6 2.1-4.6 4.6 0 2.5 2.1 4.6 4.6 4.6 2.6 0 4.6-2.1 4.6-4.6 0-2.6-2.1-4.6-4.6-4.6zm29.2 28.3c-1.1-.1-2.3 .3-3.2 1.1-2.5 2.3-5.3 4.2-8.3 5.8-2.2 1.1-3 3.8-1.8 6 1.1 2.2 3.8 3 6 1.8 3.7-1.9 7.1-4.3 10.1-7.1 1.8-1.6 1.9-4.4 .3-6.2-.8-.9-1.9-1.4-3.1-1.4z" />
</svg>
