<?xml version="1.0" encoding="UTF-8" standalone="no"?>
<svg
   xmlns:dc="http://purl.org/dc/elements/1.1/"
   xmlns:cc="http://creativecommons.org/ns#"
   xmlns:rdf="http://www.w3.org/1999/02/22-rdf-syntax-ns#"
   xmlns:svg="http://www.w3.org/2000/svg"
   xmlns="http://www.w3.org/2000/svg"
   xmlns:sodipodi="http://sodipodi.sourceforge.net/DTD/sodipodi-0.dtd"
   xmlns:inkscape="http://www.inkscape.org/namespaces/inkscape"
   version="1.1"
   width="225"
   height="139"
   viewBox="0 0 225 139"
   id="svg40"
   sodipodi:docname="logo-academie2.svg"
   inkscape:version="0.92.3 (2405546, 2018-03-11)">
  <metadata
     id="metadata46">
    <rdf:RDF>
      <cc:Work
         rdf:about="">
        <dc:format>image/svg+xml</dc:format>
        <dc:type
           rdf:resource="http://purl.org/dc/dcmitype/StillImage" />
      </cc:Work>
    </rdf:RDF>
  </metadata>
  <defs
     id="defs44" />
  <sodipodi:namedview
     pagecolor="#ffffff"
     bordercolor="#666666"
     borderopacity="1"
     objecttolerance="10"
     gridtolerance="10"
     guidetolerance="10"
     inkscape:pageopacity="0"
     inkscape:pageshadow="2"
     inkscape:window-width="1388"
     inkscape:window-height="850"
     id="namedview42"
     showgrid="false"
     inkscape:zoom="1.6978417"
     inkscape:cx="112.5"
     inkscape:cy="69.5"
     inkscape:window-x="67"
     inkscape:window-y="27"
     inkscape:window-maximized="0"
     inkscape:current-layer="svg40" />
  <g
     style="opacity:0.5;fill:#0071fb;fill-opacity:1"
     transform="translate(-0.29449178,0.33021973)"
     id="g8">
    <path
       d="m 169.50488,66.53354 0,-12.28598 -34.98381,0 0,50.18511 35.40029,0 0,-11.2448 -21.65665,0 0,-7.913004 20.40722,0 0,-11.66127 -19.99074,0 0,-7.49653 z"
       id="path2"
       style="fill:#0071fb;fill-opacity:1" />
    <path
       d="m 152.92773,32.375 c -26.16344,0 -47.48046,21.317027 -47.48046,47.480469 0,26.163441 21.31702,47.480471 47.48046,47.480471 26.16345,0 47.48047,-21.31703 47.48047,-47.480471 0,-26.163442 -21.31702,-47.480469 -47.48047,-47.480469 z m 0,10 c 20.75905,0 37.48047,16.721428 37.48047,37.480469 0,20.759041 -16.72142,37.480471 -37.48047,37.480471 -20.75904,0 -37.48046,-16.72143 -37.48046,-37.480471 0,-20.759041 16.72142,-37.480469 37.48046,-37.480469 z"
       id="path4"
       style="fill:#0071fb;fill-opacity:1" />
    <path
       d="m 158.26009,24.886149 13.5354,-13.535402 -19.78251,0 -3.60704,13.46165 c 0,0 9.24696,0.07375 9.85415,0.07375 z"
       id="path6"
       style="fill:#0071fb;fill-opacity:1" />
  </g>
  <g
     style="fill:#000000"
     id="g38">
    <path
       d="m 82.357715,81.422482 0,21.136048 7.496531,0 0,-6.247106 -2.811199,0 0,4.997686 -2.290607,0 0,-19.886628 z"
       id="path10" />
    <path
       d="m 98.527659,107.55622 2.154911,0 0,-22.281354 -2.186491,0 0,15.513654 -2.995255,0 0,-15.562014 -2.418905,0 0,15.824924 c 0,0.96374 0.843757,1.61126 1.736789,1.61126 l 3.678489,0 z"
       id="path12" />
    <path
       d="m 116.43459,102.74073 1.98781,0 0,-14.945444 2.76086,0 0,14.871824 2.13506,0 -0.0368,-13.657046 c 0,-0.712111 -0.18793,-1.860907 -0.55216,-2.429556 -0.36423,-0.568649 -0.88356,-1.336946 -1.69333,-1.325211 l -2.53999,0.03681 c -0.73633,0 -1.49557,0.870503 -1.80376,1.398834 -0.3082,0.528332 -0.47855,1.88955 -0.47855,2.613612 z"
       id="path14" />
    <path
       d="M 108.04102 85.349609 L 108.04102 85.363281 L 107.60938 85.363281 C 106.74966 85.363281 105.95972 86.273229 105.54688 86.912109 C 105.13403 87.550989 104.95508 89.061174 104.95508 89.771484 L 104.95508 95.255859 L 104.95898 95.255859 L 104.95898 99.294922 C 104.95898 100.00523 105.13794 101.51542 105.55078 102.1543 C 105.96362 102.79318 106.75356 103.70313 107.61328 103.70312 L 108.04492 103.70312 L 108.04492 103.71875 L 109.16602 103.71875 C 110.02574 103.71875 110.81568 102.8088 111.22852 102.16992 C 111.64136 101.53104 111.82031 100.02086 111.82031 99.310547 L 111.82031 95.230469 L 111.81641 95.230469 L 111.81641 89.757812 C 111.81641 89.047502 111.63745 87.537317 111.22461 86.898438 C 110.81177 86.259557 110.02183 85.349609 109.16211 85.349609 L 108.04102 85.349609 z M 107.01172 88.015625 L 109.80859 88.015625 L 109.80859 101.1582 L 107.12109 101.1582 L 107.01172 88.015625 z "
       id="path16" />
    <path
       d="M 58.308594 56.101562 L 58.308594 57.830078 L 63.347656 57.720703 L 63.347656 59.666016 C 63.347656 60.157671 63.182238 60.361328 62.652344 60.361328 L 61.175781 60.361328 C 58.993743 60.361328 58.371094 62.037795 58.371094 64.015625 L 58.443359 70.328125 C 58.44873 71.804902 59.068264 73.021822 60.958984 73.107422 L 65.75 73.107422 L 65.75 58.826172 C 65.75 57.425242 65.454177 56.312421 63.830078 56.101562 L 58.308594 56.101562 z M 61.179688 62.128906 L 63.498047 62.128906 C 63.97895 62.128906 64.056641 62.194893 64.056641 62.671875 L 64.056641 70.632812 C 64.056641 71.155489 63.980466 71.308594 63.388672 71.308594 L 61.371094 71.308594 C 60.853113 71.308594 60.8125 71.146834 60.8125 70.677734 L 60.8125 62.505859 C 60.8125 62.286749 60.846717 62.128906 61.179688 62.128906 z "
       id="path18" />
    <path
       d="M 34.943359 56.101562 L 34.943359 57.830078 L 39.982422 57.720703 L 39.982422 59.666016 C 39.982422 60.157671 39.817003 60.361328 39.287109 60.361328 L 37.810547 60.361328 C 35.628509 60.361328 35.003906 62.037795 35.003906 64.015625 L 35.078125 70.328125 C 35.083496 71.804902 35.70303 73.021822 37.59375 73.107422 L 42.384766 73.107422 L 42.384766 58.826172 C 42.384766 57.425242 42.088943 56.312421 40.464844 56.101562 L 34.943359 56.101562 z M 37.814453 62.128906 L 40.132812 62.128906 C 40.613715 62.128906 40.689453 62.194893 40.689453 62.671875 L 40.689453 70.632812 C 40.689453 71.155489 40.615232 71.308594 40.023438 71.308594 L 38.005859 71.308594 C 37.487878 71.308594 37.447266 71.146834 37.447266 70.677734 L 37.447266 62.505859 C 37.447266 62.286749 37.481483 62.128906 37.814453 62.128906 z "
       id="path20" />
    <path
       d="M 77.701172 51.15625 L 75.265625 51.162109 C 75.265625 51.162109 75.301222 52.494986 75.294922 55.345703 C 75.294922 55.837358 75.129503 56.041016 74.599609 56.041016 L 73.123047 56.041016 C 70.941009 56.041016 70.316406 57.715529 70.316406 59.693359 L 70.390625 70.300781 C 70.395996 71.777558 71.01553 72.994478 72.90625 73.080078 L 77.697266 73.080078 L 77.701172 51.15625 z M 73.126953 57.806641 L 75.445312 57.806641 C 75.926215 57.806641 76.001953 57.872627 76.001953 58.349609 L 76.001953 70.605469 C 76.001953 71.128145 75.927731 71.28125 75.335938 71.28125 L 73.316406 71.28125 C 72.798425 71.28125 72.759766 71.119491 72.759766 70.650391 L 72.759766 58.183594 C 72.759766 57.964484 72.793983 57.806641 73.126953 57.806641 z "
       id="path22" />
    <path
       d="m 82.230442,53.81386 6.76964,-2.516843 -0.566102,-1.536188 -6.436492,3.268175 z"
       id="path24" />
    <path
       d="m 109.1656,53.883145 2.73573,-0.02603 0,-3.197943 -2.78511,0.02909 z"
       id="path26" />
    <path
       d="m 110.00117,57.683469 0,14.251217 c 0,0.2613 0.45385,0.483281 0.68077,0.614295 l 1.36154,0.786086 c 0.22692,0.131014 0.58307,0.393043 0.92805,0.393043 l 0.88202,0 0,-1.520113 -0.98912,0 0,-14.732765 c 0,-0.634337 -0.61461,-1.275451 -1.27545,-1.275451 l -2.26458,0 -1.34052,1.496703 z"
       id="path28" />
    <path
       d="M 84.146484 56.466797 C 82.708178 56.466797 81.263672 58.294433 81.263672 60.833984 L 81.263672 69.162109 C 81.263672 70.889808 82.556291 72.988281 84.414062 72.988281 L 86.417969 72.988281 C 87.695808 72.988281 88.996094 72.234881 88.996094 70.984375 L 88.976562 69.396484 L 87.119141 69.439453 L 87.107422 71.113281 C 87.107422 71.420328 86.994328 71.703125 86.689453 71.703125 L 84.560547 71.734375 C 84.270915 71.734375 84.023438 71.612621 84.023438 71.330078 L 84.023438 64.660156 L 88.355469 64.660156 C 89.147566 64.660156 89.550781 64.516045 89.550781 63.966797 L 89.550781 60.425781 C 89.550781 58.761704 88.159942 56.466797 86.609375 56.466797 L 84.146484 56.466797 z M 84.253906 58.208984 L 86.466797 58.208984 C 86.9477 58.208984 87.025391 58.274971 87.025391 58.751953 L 87.025391 62.521484 C 87.025391 63.04416 86.949216 63.197266 86.357422 63.197266 L 84.443359 63.197266 C 83.925378 63.197266 83.884766 63.035506 83.884766 62.566406 L 83.884766 58.585938 C 83.884766 58.366827 83.920936 58.208984 84.253906 58.208984 z "
       id="path30" />
    <path
       d="M 118.81641 56.527344 C 117.37811 56.527344 115.93555 58.35498 115.93555 60.894531 L 115.93555 69.222656 C 115.93555 70.950355 117.22817 73.048828 119.08594 73.048828 L 121.08984 73.048828 C 122.36768 73.048828 123.66602 72.295428 123.66602 71.044922 L 123.64844 69.457031 L 121.79102 69.498047 L 121.7793 71.173828 C 121.7793 71.480875 121.66621 71.763672 121.36133 71.763672 L 119.23242 71.794922 C 118.94279 71.794922 118.69531 71.671215 118.69531 71.388672 L 118.69531 64.71875 L 123.02734 64.71875 C 123.81944 64.71875 124.2207 64.576592 124.2207 64.027344 L 124.2207 60.486328 C 124.2207 58.822251 122.83181 56.527344 121.28125 56.527344 L 118.81641 56.527344 z M 118.92578 58.267578 L 121.13867 58.267578 C 121.61955 58.267578 121.69727 58.333565 121.69727 58.810547 L 121.69727 62.580078 C 121.69727 63.102754 121.62109 63.257812 121.0293 63.257812 L 119.11523 63.257812 C 118.59725 63.257813 118.55664 63.096053 118.55664 62.626953 L 118.55664 58.646484 C 118.55664 58.427374 118.59281 58.267578 118.92578 58.267578 z "
       id="path32" />
    <path
       d="m 52.009796,59.66172 1.663279,0 0,-1.763156 c 0,-0.884449 -0.497361,-1.750842 -1.603597,-1.750842 l -3.436133,0 c -1.616718,0 -2.330882,1.087387 -2.330882,3.208334 l 0,9.647906 c 0,2.5979 0.74906,3.925477 2.458007,3.925477 l 3.221446,0 c 1.070574,0 1.820844,-1.629267 1.820844,-2.388684 l 0,-1.143957 -1.84764,0 0,1.275451 c 0,0.35473 -0.20335,0.729514 -0.526382,0.729514 l -1.920402,0 c -0.408411,0 -0.600471,-0.278431 -0.600471,-0.769538 l 0,-12.115808 c 0,-0.395108 0.165428,-0.63862 0.638621,-0.63862 l 1.888042,0 c 0.39722,0 0.56372,0.26531 0.56372,0.634282 z"
       id="path34" />
    <path
       d="m 104.07535,56.225811 -10.733135,0 0,16.671588 2.394725,0 0,-14.331539 c 0,-0.420864 0.199729,-0.654848 0.687916,-0.654848 l 1.056068,0 c 0.520003,0 0.675135,0.226895 0.675135,0.673437 l 0,13.155015 c 0,0.48225 0.455656,1.228961 0.675527,1.170047 l 1.746864,0 0,-14.367064 c 0,-0.383656 0.15197,-0.653978 0.72696,-0.653978 l 1.32938,0 c 0.52187,0 0.62633,0.359989 0.62633,0.678389 l 0,14.26585 1.89854,0 c 0.38051,0 0.75486,-0.411157 0.75486,-0.754859 l 0,-13.85484 c 0,-1.237265 -1.12683,-1.997198 -1.83917,-1.997198 z"
       id="path36" />
  </g>
</svg>
