<?xml version="1.0" encoding="UTF-8" standalone="no"?>
<svg
   xmlns:dc="http://purl.org/dc/elements/1.1/"
   xmlns:cc="http://creativecommons.org/ns#"
   xmlns:rdf="http://www.w3.org/1999/02/22-rdf-syntax-ns#"
   xmlns:svg="http://www.w3.org/2000/svg"
   xmlns="http://www.w3.org/2000/svg"
   xmlns:sodipodi="http://sodipodi.sourceforge.net/DTD/sodipodi-0.dtd"
   xmlns:inkscape="http://www.inkscape.org/namespaces/inkscape"
   version="1.1"
   width="270"
   height="139"
   viewBox="0 0 270 139"
   id="svg40"
   sodipodi:docname="logo-academie3.svg"
   inkscape:version="0.92.3 (2405546, 2018-03-11)">
  <metadata
     id="metadata46">
    <rdf:RDF>
      <cc:Work
         rdf:about="">
        <dc:format>image/svg+xml</dc:format>
        <dc:type
           rdf:resource="http://purl.org/dc/dcmitype/StillImage" />
        <dc:title></dc:title>
      </cc:Work>
    </rdf:RDF>
  </metadata>
  <defs
     id="defs44" />
  <sodipodi:namedview
     pagecolor="#ffffff"
     bordercolor="#666666"
     borderopacity="1"
     objecttolerance="10"
     gridtolerance="10"
     guidetolerance="10"
     inkscape:pageopacity="0"
     inkscape:pageshadow="2"
     inkscape:window-width="1388"
     inkscape:window-height="850"
     id="namedview42"
     showgrid="false"
     inkscape:zoom="1.2005554"
     inkscape:cx="-32.095341"
     inkscape:cy="69.499999"
     inkscape:window-x="67"
     inkscape:window-y="27"
     inkscape:window-maximized="0"
     inkscape:current-layer="svg40" />
  <g
     style="opacity:0.5;fill:#0071fb;fill-opacity:1"
     transform="translate(64.675438,0.33021973)"
     id="g8">
    <path
       d="M 169.50488,66.53354 V 54.24756 h -34.98381 v 50.18511 h 35.40029 v -11.2448 h -21.65665 v -7.913004 h 20.40722 v -11.66127 h -19.99074 v -7.49653 z"
       id="path2"
       style="fill:#0071fb;fill-opacity:1"
       inkscape:connector-curvature="0" />
    <path
       d="m 152.92773,32.375 c -26.16344,0 -47.48046,21.317027 -47.48046,47.480469 0,26.163441 21.31702,47.480471 47.48046,47.480471 26.16345,0 47.48047,-21.31703 47.48047,-47.480471 0,-26.163442 -21.31702,-47.480469 -47.48047,-47.480469 z m 0,10 c 20.75905,0 37.48047,16.721428 37.48047,37.480469 0,20.759041 -16.72142,37.480471 -37.48047,37.480471 -20.75904,0 -37.48046,-16.72143 -37.48046,-37.480471 0,-20.759041 16.72142,-37.480469 37.48046,-37.480469 z"
       id="path4"
       style="fill:#0071fb;fill-opacity:1"
       inkscape:connector-curvature="0" />
    <path
       d="m 158.26009,24.886149 13.5354,-13.535402 h -19.78251 l -3.60704,13.46165 c 0,0 9.24696,0.07375 9.85415,0.07375 z"
       id="path6"
       style="fill:#0071fb;fill-opacity:1"
       inkscape:connector-curvature="0" />
  </g>
  <g
     style="fill:#000000"
     id="g38"
     transform="matrix(1.9370051,0,0,1.9370051,-59.33302,-81.358816)">
    <path
       d="m 82.357715,81.422482 v 21.136048 h 7.496531 v -6.247106 h -2.811199 v 4.997686 H 84.75244 V 81.422482 Z"
       id="path10"
       inkscape:connector-curvature="0" />
    <path
       d="m 98.527659,107.55622 h 2.154911 V 85.274866 H 98.496079 V 100.78852 H 95.500824 V 85.226506 h -2.418905 v 15.824924 c 0,0.96374 0.843757,1.61126 1.736789,1.61126 h 3.678489 z"
       id="path12"
       inkscape:connector-curvature="0" />
    <path
       d="m 116.43459,102.74073 h 1.98781 V 87.795286 h 2.76086 v 14.871824 h 2.13506 l -0.0368,-13.657046 c 0,-0.712111 -0.18793,-1.860907 -0.55216,-2.429556 -0.36423,-0.568649 -0.88356,-1.336946 -1.69333,-1.325211 l -2.53999,0.03681 c -0.73633,0 -1.49557,0.870503 -1.80376,1.398834 -0.3082,0.528332 -0.47855,1.88955 -0.47855,2.613612 z"
       id="path14"
       inkscape:connector-curvature="0" />
    <path
       d="m 108.04102,85.349609 v 0.01367 h -0.43164 c -0.85972,0 -1.64966,0.909948 -2.0625,1.548828 -0.41285,0.63888 -0.5918,2.149065 -0.5918,2.859375 v 5.484375 h 0.004 v 4.039063 c 0,0.71031 0.17896,2.2205 0.5918,2.85938 0.41284,0.63888 1.20278,1.54883 2.0625,1.54882 h 0.43164 v 0.0156 h 1.1211 c 0.85972,0 1.64966,-0.90995 2.0625,-1.54883 0.41284,-0.63888 0.59179,-2.14906 0.59179,-2.859375 v -4.080078 h -0.004 V 89.75778 c 0,-0.71031 -0.17896,-2.220495 -0.5918,-2.859374 -0.41284,-0.638881 -1.20278,-1.548829 -2.0625,-1.548829 z m -1.0293,2.666016 h 2.79687 V 101.1582 h -2.6875 z"
       id="path16"
       inkscape:connector-curvature="0" />
    <path
       d="m 58.308594,56.101562 v 1.728516 l 5.039062,-0.109375 v 1.945313 c 0,0.491655 -0.165418,0.695312 -0.695312,0.695312 h -1.476563 c -2.182038,0 -2.804687,1.676467 -2.804687,3.654297 l 0.07227,6.3125 c 0.0054,1.476777 0.624905,2.693697 2.515625,2.779297 H 65.75 v -14.28125 c 0,-1.40093 -0.295823,-2.513751 -1.919922,-2.72461 z m 2.871094,6.027344 h 2.318359 c 0.480903,0 0.558594,0.06599 0.558594,0.542969 v 7.960937 c 0,0.522677 -0.07617,0.675782 -0.667969,0.675782 h -2.017578 c -0.517981,0 -0.558594,-0.16176 -0.558594,-0.63086 v -8.171875 c 0,-0.21911 0.03422,-0.376953 0.367188,-0.376953 z"
       id="path18"
       inkscape:connector-curvature="0" />
    <path
       d="m 34.943359,56.101562 v 1.728516 l 5.039063,-0.109375 v 1.945313 c 0,0.491655 -0.165419,0.695312 -0.695313,0.695312 h -1.476562 c -2.182038,0 -2.806641,1.676467 -2.806641,3.654297 l 0.07422,6.3125 c 0.0054,1.476777 0.624905,2.693697 2.515625,2.779297 h 4.791016 v -14.28125 c 0,-1.40093 -0.295823,-2.513751 -1.919922,-2.72461 z m 2.871094,6.027344 h 2.318359 c 0.480903,0 0.556641,0.06599 0.556641,0.542969 v 7.960937 c 0,0.522677 -0.07422,0.675782 -0.666015,0.675782 h -2.017579 c -0.517981,0 -0.558593,-0.16176 -0.558593,-0.63086 v -8.171875 c 0,-0.21911 0.03422,-0.376953 0.367187,-0.376953 z"
       id="path20"
       inkscape:connector-curvature="0" />
    <path
       d="m 77.701172,51.15625 -2.435547,0.0059 c 0,0 0.0356,1.332877 0.0293,4.183594 0,0.491655 -0.165419,0.695313 -0.695313,0.695313 H 73.12305 c -2.182038,0 -2.806641,1.674513 -2.806641,3.652343 l 0.07422,10.607422 c 0.0054,1.476777 0.624905,2.693697 2.515625,2.779297 h 4.791016 z m -4.574219,6.650391 h 2.318359 c 0.480903,0 0.556641,0.06599 0.556641,0.542968 v 12.25586 c 0,0.522676 -0.07422,0.675781 -0.666015,0.675781 h -2.019532 c -0.517981,0 -0.55664,-0.161759 -0.55664,-0.630859 V 58.183594 c 0,-0.21911 0.03422,-0.376953 0.367187,-0.376953 z"
       id="path22"
       inkscape:connector-curvature="0" />
    <path
       d="m 82.230442,53.81386 6.76964,-2.516843 -0.566102,-1.536188 -6.436492,3.268175 z"
       id="path24"
       inkscape:connector-curvature="0" />
    <path
       d="m 109.1656,53.883145 2.73573,-0.02603 v -3.197943 l -2.78511,0.02909 z"
       id="path26"
       inkscape:connector-curvature="0" />
    <path
       d="m 110.00117,57.683469 v 14.251217 c 0,0.2613 0.45385,0.483281 0.68077,0.614295 l 1.36154,0.786086 c 0.22692,0.131014 0.58307,0.393043 0.92805,0.393043 h 0.88202 v -1.520113 h -0.98912 V 57.475232 c 0,-0.634337 -0.61461,-1.275451 -1.27545,-1.275451 h -2.26458 l -1.34052,1.496703 z"
       id="path28"
       inkscape:connector-curvature="0" />
    <path
       d="m 84.146484,56.466797 c -1.438306,0 -2.882812,1.827636 -2.882812,4.367187 v 8.328125 c 0,1.727699 1.292619,3.826172 3.15039,3.826172 h 2.003907 c 1.277839,0 2.578125,-0.7534 2.578125,-2.003906 l -0.01953,-1.587891 -1.857421,0.04297 -0.01172,1.673828 c 0,0.307047 -0.113094,0.589844 -0.417969,0.589844 l -2.128906,0.03125 c -0.289632,0 -0.537109,-0.121754 -0.537109,-0.404297 v -6.669922 h 4.332031 c 0.792097,0 1.195312,-0.144111 1.195312,-0.693359 v -3.541016 c 0,-1.664077 -1.390839,-3.958984 -2.941406,-3.958984 z m 0.107422,1.742187 h 2.212891 c 0.480903,0 0.558594,0.06599 0.558594,0.542969 v 3.769531 c 0,0.522676 -0.07617,0.675782 -0.667969,0.675782 h -1.914063 c -0.517981,0 -0.558593,-0.16176 -0.558593,-0.63086 v -3.980468 c 0,-0.219111 0.03617,-0.376954 0.36914,-0.376954 z"
       id="path30"
       inkscape:connector-curvature="0" />
    <path
       d="m 118.81641,56.527344 c -1.4383,0 -2.88086,1.827636 -2.88086,4.367187 v 8.328125 c 0,1.727699 1.29262,3.826172 3.15039,3.826172 h 2.0039 c 1.27784,0 2.57618,-0.7534 2.57618,-2.003906 l -0.0176,-1.587891 -1.85742,0.04102 -0.0117,1.675781 c 0,0.307047 -0.11309,0.589844 -0.41797,0.589844 l -2.12891,0.03125 c -0.28963,0 -0.53711,-0.123707 -0.53711,-0.40625 V 64.71875 h 4.33203 c 0.7921,0 1.19336,-0.142158 1.19336,-0.691406 v -3.541016 c 0,-1.664077 -1.38889,-3.958984 -2.93945,-3.958984 z m 0.10937,1.740234 h 2.21289 c 0.48088,0 0.5586,0.06599 0.5586,0.542969 v 3.769531 c 0,0.522676 -0.0762,0.677734 -0.66797,0.677734 h -1.91407 c -0.51798,10e-7 -0.55859,-0.161759 -0.55859,-0.630859 v -3.980469 c 0,-0.21911 0.0362,-0.378906 0.36914,-0.378906 z"
       id="path32"
       inkscape:connector-curvature="0" />
    <path
       d="m 52.009796,59.66172 h 1.663279 v -1.763156 c 0,-0.884449 -0.497361,-1.750842 -1.603597,-1.750842 h -3.436133 c -1.616718,0 -2.330882,1.087387 -2.330882,3.208334 v 9.647906 c 0,2.5979 0.74906,3.925477 2.458007,3.925477 h 3.221446 c 1.070574,0 1.820844,-1.629267 1.820844,-2.388684 v -1.143957 h -1.84764 v 1.275451 c 0,0.35473 -0.20335,0.729514 -0.526382,0.729514 h -1.920402 c -0.408411,0 -0.600471,-0.278431 -0.600471,-0.769538 V 58.516417 c 0,-0.395108 0.165428,-0.63862 0.638621,-0.63862 h 1.888042 c 0.39722,0 0.56372,0.26531 0.56372,0.634282 z"
       id="path34"
       inkscape:connector-curvature="0" />
    <path
       d="M 104.07535,56.225811 H 93.342215 V 72.897399 H 95.73694 V 58.56586 c 0,-0.420864 0.199729,-0.654848 0.687916,-0.654848 h 1.056068 c 0.520003,0 0.675135,0.226895 0.675135,0.673437 v 13.155015 c 0,0.48225 0.455656,1.228961 0.675527,1.170047 h 1.746864 V 58.542447 c 0,-0.383656 0.15197,-0.653978 0.72696,-0.653978 h 1.32938 c 0.52187,0 0.62633,0.359989 0.62633,0.678389 v 14.26585 h 1.89854 c 0.38051,0 0.75486,-0.411157 0.75486,-0.754859 v -13.85484 c 0,-1.237265 -1.12683,-1.997198 -1.83917,-1.997198 z"
       id="path36"
       inkscape:connector-curvature="0" />
  </g>
</svg>
