<?xml version="1.0" encoding="UTF-8" standalone="no"?>
<!-- Generator: Adobe Illustrator 16.0.0, SVG Export Plug-In . SVG Version: 6.00 Build 0)  -->

<svg
   xmlns:dc="http://purl.org/dc/elements/1.1/"
   xmlns:cc="http://creativecommons.org/ns#"
   xmlns:rdf="http://www.w3.org/1999/02/22-rdf-syntax-ns#"
   xmlns:svg="http://www.w3.org/2000/svg"
   xmlns="http://www.w3.org/2000/svg"
   xmlns:sodipodi="http://sodipodi.sourceforge.net/DTD/sodipodi-0.dtd"
   xmlns:inkscape="http://www.inkscape.org/namespaces/inkscape"
   version="1.1"
   id="Calque_1"
   x="0px"
   y="0px"
   width="127.561px"
   height="127.561px"
   viewBox="0 0 127.561 127.561"
   enable-background="new 0 0 127.561 127.561"
   xml:space="preserve"
   inkscape:version="0.48.3.1 r9886"
   sodipodi:docname="avatar_neutre.svg"><metadata
   id="metadata11"><rdf:RDF><cc:Work
       rdf:about=""><dc:format>image/svg+xml</dc:format><dc:type
         rdf:resource="http://purl.org/dc/dcmitype/StillImage" /><dc:title></dc:title></cc:Work></rdf:RDF></metadata><defs
   id="defs9" /><sodipodi:namedview
   pagecolor="#ffffff"
   bordercolor="#666666"
   borderopacity="1"
   objecttolerance="10"
   gridtolerance="10"
   guidetolerance="10"
   inkscape:pageopacity="0"
   inkscape:pageshadow="2"
   inkscape:window-width="640"
   inkscape:window-height="480"
   id="namedview7"
   showgrid="false"
   inkscape:zoom="1.8500953"
   inkscape:cx="51.006203"
   inkscape:cy="57.079897"
   inkscape:window-x="470"
   inkscape:window-y="447"
   inkscape:window-maximized="0"
   inkscape:current-layer="g3" />
<g
   id="g3">
	<path
   d="m 118.05,127.561 c 0.044,-0.231 -1.54,-12.343 -1.555,-12.587 0,0 -2.954,-7.808 -7.623,-8.604 -4.665,-0.802 -10.663,-2.497 -13.171,-4.47 -1.468,-1.163 -6.242,-3.175 -8.454,-4.013 -1.034,-0.391 -2.802,-3.571 -3.408,-5.008 -0.613,-1.438 -4.822,-4.344 -5.897,-4.504 l -0.167,-5.983 5.701847,-9.355127 C 92.673094,68.88495 98.440542,15.673089 64.083,13.178 c 0.436513,6.482153 -0.204,-0.004 -0.307,-0.015 -0.102,0.008 -0.203,0.008 -0.308,0.015 -22.440084,1.702607 -26.578339,26.351776 -26.366174,38.208704 0.300158,16.774464 13.46696,25.37967 13.52953,32.097012 -0.233,0.644 -4.099553,-1.52212 1.895076,1.007462 17.572507,7.415155 -1.958127,-1.725076 -1.958127,-1.725076 1.790478,-8.095542 -0.414409,2.835235 -0.953305,5.608898 -1.07,0.16 -5.281,3.066 -5.896,4.504 -0.615,1.437 -2.377,4.617 -3.408,5.008 -2.218,0.837 -6.987,2.85 -8.456,4.013 -2.515,1.974 -8.496,3.668 -13.169,4.47 -4.669,0.794 -7.619,8.057 -7.619,8.057 -0.018,0.248 -1.6,12.9 -1.561,13.134 z"
   id="path5"
   style="fill:#ffffff"
   inkscape:connector-curvature="0"
   sodipodi:nodetypes="ccccccccccccscsccccccccc" />
</g>
</svg>